<svg xmlns="http://www.w3.org/2000/svg" width="32" height="32" viewBox="0 0 32 32"><path fill="#FFF" d="M16,0 C7.16428571,0 0,7.16428571 0,16 C0,24.8357143 7.16428571,32 16,32 C24.8357143,32 32,24.8357143 32,16 C32,7.16428571 24.8357143,0 16,0 Z M25.1428571,9.06071429 L23.6857143,10.4571429 C23.5571429,10.5535714 23.4964286,10.7107143 23.5214286,10.8642857 L23.5214286,21.1392857 C23.4964286,21.2964286 23.5571429,21.4535714 23.6857143,21.5464286 L25.1142857,22.9428571 L25.1142857,23.2535714 L17.9428571,23.2535714 L17.9428571,22.9571429 L19.4178571,21.525 C19.5642857,21.3785714 19.5642857,21.3357143 19.5642857,21.1178571 L19.5642857,12.8035714 L15.4571429,23.2178571 L14.9035714,23.2178571 L10.125,12.8035714 L10.125,19.7857143 C10.0821429,20.0785714 10.1857143,20.375 10.3928571,20.5857143 L12.3142857,22.9107143 L12.3142857,23.2214286 L6.85714286,23.2214286 L6.85714286,22.9107143 L8.77857143,20.5857143 C8.98571429,20.375 9.075,20.075 9.02857143,19.7857143 L9.02857143,11.7142857 C9.05357143,11.4892857 8.96785714,11.2714286 8.79642857,11.1178571 L7.08928571,9.06071429 L7.08928571,8.75 L12.3928571,8.75 L16.4857143,17.7321429 L20.0892857,8.75714286 L25.1428571,8.75714286 L25.1428571,9.06071429 Z"/></svg>