<svg xmlns="http://www.w3.org/2000/svg" width="32" height="32" viewBox="0 0 32 32"><path fill="#FFF" d="M21.232,23.3394286 L23.8571428,10.9645714 C24.0891428,9.87542859 23.464,9.44685716 22.7497143,9.71428572 L7.32114284,15.6605714 C6.26742856,16.0708572 6.28571428,16.6605714 7.14285716,16.928 L11.0891428,18.16 L20.2502857,12.392 C20.6788572,12.1062857 21.072,12.2674286 20.7508572,12.5531428 L13.3405714,19.2491428 L13.0548572,23.3211428 C13.4651429,23.3211428 13.6445714,23.1428571 13.8582857,22.928 L15.7862857,21.0708572 L19.7862857,24.0171428 C20.5188572,24.4274286 21.0365714,24.2137143 21.2331428,23.3382857 L21.232,23.3394286 Z M32,16 C32,24.8388572 24.8388572,32 16,32 C7.16114284,32 0,24.8388572 0,16 C0,7.16114284 7.16114284,0 16,0 C24.8388572,0 32,7.16114284 32,16 Z"/></svg>